<?xml version="1.0" standalone="no"?>
<svg xmlns="http://www.w3.org/2000/svg" version="1.1" xmlns:xlink="http://www.w3.org/1999/xlink" width="512" height="512" x="0" y="0" viewBox="0 0 100 100" style="enable-background:new 0 0 512 512" xml:space="preserve" class=""><g><path d="M84.804 79.297a3.54 3.54 0 0 0 3.548-3.548V6.048A3.548 3.548 0 0 0 84.804 2.5H24.291c-6.977.026-12.63 5.666-12.643 12.643v69.714c0 6.977 5.666 12.643 12.643 12.643h60.513a3.557 3.557 0 0 0 3.548-3.548c0-1.96-1.588-3.574-3.548-3.574h-.556V79.297zM67.568 26.213H32.432a3.54 3.54 0 0 1-3.548-3.548c0-1.933 1.59-3.548 3.548-3.548h35.136a3.557 3.557 0 0 1 3.548 3.548 3.54 3.54 0 0 1-3.548 3.548zm9.584 64.178H24.291a5.534 5.534 0 0 1-5.547-5.534c0-3.071 2.489-5.56 5.547-5.56h52.861v11.094z" fill="#6b49ff" opacity="1" data-original="#000000" class=""/></g></svg>