<?xml version="1.0" standalone="no"?>
<svg xmlns="http://www.w3.org/2000/svg" version="1.1" xmlns:xlink="http://www.w3.org/1999/xlink" width="512" height="512" x="0" y="0" viewBox="0 0 512 512" style="enable-background:new 0 0 512 512" xml:space="preserve" class=""><g><path d="M255.15 511.15H63.787C28.619 511.15 0 482.53 0 447.362V64.638C0 29.47 28.619.85 63.787.85H255.15c11.737 0 21.262 9.526 21.262 21.262s-9.526 21.262-21.262 21.262H63.787c-11.716 0-21.262 9.547-21.262 21.262V447.36c0 11.737 9.547 21.262 21.262 21.262H255.15c11.737 0 21.262 9.504 21.262 21.262 0 11.761-9.526 21.266-21.262 21.266z" style="" fill="#6b49ff" data-original="#1138f7" class="" opacity="1"/><path d="M446.512 277.262h-255.15c-11.737 0-21.262-9.504-21.262-21.262 0-11.737 9.526-21.262 21.262-21.262h255.15c11.758 0 21.262 9.526 21.262 21.262 0 11.758-9.504 21.262-21.262 21.262z" style="" fill="#6b49ff" data-original="#1138f7" class="" opacity="1"/><path d="M361.462 404.837a21.256 21.256 0 0 1-15.139-6.336c-8.25-8.356-8.165-21.815.213-30.065L460.46 256 346.536 143.564c-8.377-8.25-8.441-21.709-.213-30.086 8.229-8.377 21.73-8.441 30.065-.191l129.276 127.575c4.04 3.997 6.336 9.441 6.336 15.139s-2.275 11.12-6.336 15.139L376.388 398.714c-4.125 4.082-9.526 6.123-14.926 6.123z" style="" fill="#6b49ff" data-original="#1138f7" class="" opacity="1"/></g></svg>