<?xml version="1.0" standalone="no"?>
<svg xmlns="http://www.w3.org/2000/svg" version="1.1" xmlns:xlink="http://www.w3.org/1999/xlink" width="512" height="512" x="0" y="0" viewBox="0 0 512 512" style="enable-background:new 0 0 512 512" xml:space="preserve" class=""><g transform="matrix(1.0799999999999983,0,0,1.0799999999999983,-20.480016784667498,-20.480018310545972)"><path fill="#00eb36" fill-rule="evenodd" d="M27.591 440.698c-8.8 15.242-3.53 34.912 11.712 43.712s34.912 3.529 43.712-11.713l93.821-162.503 101.098 58.368 128.83-223.14 19.003 70.919c4.555 17 22.191 27.182 39.191 22.627s27.182-22.191 22.627-39.191L456.869 85.146l-16.564-61.818-61.818 16.564-114.631 30.715c-17 4.555-27.182 22.191-22.627 39.191s22.191 27.182 39.191 22.627l70.919-19.003-96.83 167.715-101.097-58.368L27.591 440.698z" clip-rule="evenodd" opacity="1" data-original="#ffb229"/></g></svg>