<?xml version="1.0" standalone="no"?>
<svg xmlns="http://www.w3.org/2000/svg" version="1.1" xmlns:xlink="http://www.w3.org/1999/xlink" width="512" height="512" x="0" y="0" viewBox="0 0 30 30" style="enable-background:new 0 0 512 512" xml:space="preserve" class=""><g><path d="m23.525 6.94-3.31-3.06c-.6-.57-1.39-.88-2.22-.88h-9.29c-1.8 0-3.27 1.47-3.27 3.27v17.46c0 1.8 1.47 3.27 3.27 3.27h12.59c1.8 0 3.27-1.47 3.27-3.27V9.34c0-.91-.38-1.78-1.04-2.4zm-11.79 4.28c2.703-2.704 2.61-2.623 2.71-2.69a.99.99 0 0 1 .55-.17h.01c.26 0 .51.11.7.29l2.56 2.57a.996.996 0 1 1-1.41 1.41l-.85-.85v3.53c0 .56-.45 1-1 1-.56 0-1-.44-1-1v-3.53l-.86.86a1.003 1.003 0 0 1-1.41 0c-.39-.39-.39-1.03 0-1.42zm7.14 10.42h-7.75c-.55 0-1-.45-1-1s.45-1 1-1h7.75c.55 0 1 .45 1 1s-.45 1-1 1z" fill="#6b49ff" opacity="1" data-original="#000000" class=""/></g></svg>